<svg width="101" height="108" viewBox="0 0 101 108" fill="none" xmlns="http://www.w3.org/2000/svg">
<path d="M41.8678 2.01667C43.3669 0.952674 45.1599 0.381104 46.9982 0.381104C48.8366 0.381104 50.6295 0.952674 52.1287 2.01667L91.0445 29.6275C95.8791 33.0589 93.4585 40.6798 87.5333 40.6931H6.48311C0.538007 40.6931 -1.89589 33.0655 2.95861 29.6275L41.8678 2.01667ZM47.0016 26.5618C48.4716 26.5618 49.8814 25.9779 50.9209 24.9384C51.9604 23.8989 52.5443 22.4891 52.5443 21.0191C52.5443 19.549 51.9604 18.1392 50.9209 17.0997C49.8814 16.0602 48.4716 15.4763 47.0016 15.4763C45.5315 15.4763 44.1217 16.0602 43.0822 17.0997C42.0428 18.1392 41.4588 19.549 41.4588 21.0191C41.4588 22.4891 42.0428 23.8989 43.0822 24.9384C44.1217 25.9779 45.5315 26.5618 47.0016 26.5618ZM10.4266 47.3497V73.9497H23.7266V47.3497H10.4266ZM0.451556 95.0036C0.451556 87.0436 6.90205 80.5931 14.8555 80.5931H35.936C34.4572 83.7124 33.6939 87.1226 33.7016 90.5747C33.7016 94.1458 34.4996 97.524 35.9426 100.55H3.77656C2.89471 100.55 2.04899 100.199 1.42543 99.5759C0.801868 98.9523 0.451556 98.1066 0.451556 97.2247V95.0103V95.0036ZM40.6841 73.9431C41.6151 73.0387 42.6126 72.2141 43.6766 71.4693V47.3431H30.3766V73.9431H40.6841ZM56.9766 67.2931H63.6266V47.3497H50.3266V68.264C52.4849 67.6224 54.7249 67.2976 56.9766 67.2997V67.2931ZM70.2766 67.2931H83.5766V47.3497H70.2766V67.2997V67.2931ZM56.9766 73.9431C52.5673 73.9431 48.3387 75.6946 45.2209 78.8124C42.1031 81.9302 40.3516 86.1588 40.3516 90.5681C40.3516 94.9773 42.1031 99.2059 45.2209 102.324C48.3387 105.442 52.5673 107.193 56.9766 107.193H60.3016C61.1834 107.193 62.0291 106.843 62.6527 106.219C63.2762 105.596 63.6266 104.75 63.6266 103.868C63.6266 102.986 63.2762 102.141 62.6527 101.517C62.0291 100.893 61.1834 100.543 60.3016 100.543H56.9766C54.331 100.543 51.7938 99.4921 49.9232 97.6215C48.0525 95.7508 47.0016 93.2136 47.0016 90.5681C47.0016 87.9225 48.0525 85.3854 49.9232 83.5147C51.7938 81.644 54.331 80.5931 56.9766 80.5931H60.3016C61.1834 80.5931 62.0291 80.2428 62.6527 79.6192C63.2762 78.9956 63.6266 78.1499 63.6266 77.2681C63.6266 76.3862 63.2762 75.5405 62.6527 74.9169C62.0291 74.2934 61.1834 73.9431 60.3016 73.9431H56.9766ZM80.2516 73.9431C79.3697 73.9431 78.524 74.2934 77.9004 74.9169C77.2769 75.5405 76.9266 76.3862 76.9266 77.2681C76.9266 78.1499 77.2769 78.9956 77.9004 79.6192C78.524 80.2428 79.3697 80.5931 80.2516 80.5931H83.5766C86.2221 80.5931 88.7593 81.644 90.6299 83.5147C92.5006 85.3854 93.5516 87.9225 93.5516 90.5681C93.5516 93.2136 92.5006 95.7508 90.6299 97.6215C88.7593 99.4921 86.2221 100.543 83.5766 100.543H80.2516C79.3697 100.543 78.524 100.893 77.9004 101.517C77.2769 102.141 76.9266 102.986 76.9266 103.868C76.9266 104.75 77.2769 105.596 77.9004 106.219C78.524 106.843 79.3697 107.193 80.2516 107.193H83.5766C87.9858 107.193 92.2144 105.442 95.3322 102.324C98.45 99.2059 100.202 94.9773 100.202 90.5681C100.202 86.1588 98.45 81.9302 95.3322 78.8124C92.2144 75.6946 87.9858 73.9431 83.5766 73.9431H80.2516ZM53.6516 90.5681C53.6516 89.6862 54.0019 88.8405 54.6254 88.2169C55.249 87.5934 56.0947 87.2431 56.9766 87.2431H83.5766C84.4584 87.2431 85.3041 87.5934 85.9277 88.2169C86.5512 88.8405 86.9016 89.6862 86.9016 90.5681C86.9016 91.4499 86.5512 92.2956 85.9277 92.9192C85.3041 93.5428 84.4584 93.8931 83.5766 93.8931H56.9766C56.0947 93.8931 55.249 93.5428 54.6254 92.9192C54.0019 92.2956 53.6516 91.4499 53.6516 90.5681Z" fill="#038BF4"/>
</svg>
