<svg width="15" height="11" viewBox="0 0 15 11" fill="none" xmlns="http://www.w3.org/2000/svg">
<path d="M13.928 0.000301956C13.658 0.00756218 13.4015 0.119516 13.2124 0.312495L5.52951 7.99538L1.6784 5.0159L1.67855 5.01605C1.3845 4.78822 0.991297 4.73464 0.647151 4.87534C0.302867 5.01605 0.0597828 5.32985 0.00956231 5.69823C-0.0406805 6.06677 0.109464 6.43414 0.40352 6.66183L4.98321 10.2006C5.18316 10.3559 5.43293 10.433 5.68545 10.4173C5.93811 10.4018 6.17639 10.2947 6.35586 10.1161L14.6826 1.78942C14.8851 1.59368 14.9997 1.32401 15 1.04232C15.0004 0.760617 14.8866 0.49082 14.6846 0.294511C14.4825 0.0980447 14.2095 -0.00795377 13.928 0.000465881L13.928 0.000301956Z" fill="white"/>
</svg>
